# xmcd
#
# Track frame offsets:
#	190
#	31725
#	42080
#	59090
#	73365
#	99715
#	134872
#	166860
#	190065
#	209550
#
# Disc length: 3021
#
# Revision: 3
# Processed by: cddbd v1.5.1PL0 Copyright (c) Steve Scherf et al.
# Submitted via: cddb2pg 0.002
# Normalized: r2:DSETVAR1
#
DISCID=9b0bcb0a
DTITLE=Various Artist - Newport In New York
DYEAR=1900
DGENRE=
TTITLE0=B.B.King - Outside Help
TTITLE1=Lloyd Glenn - Honky Tonk Train Blues
TTITLE2=Lloyd Glenn - After Hours
TTITLE3=Lloyd Glenn - Pinetop´s Boogie Woogie
TTITLE4=Big Mama Thornton - Little Red Rooster
TTITLE5=Big Mama Thornton - Ball And Chain
TTITLE6=Clarence ´´Gatemouth´´ Brown - The Drifter
TTITLE7=Muddy Waters - Long Distance Call
TTITLE8=Muddy Waters - Where´s My Woman
TTITLE9=Muddy Waters - Got My Mojo Working
EXTD=
EXTT0=
EXTT1=
EXTT2=
EXTT3=
EXTT4=
EXTT5=
EXTT6=
EXTT7=
EXTT8=
EXTT9=
PLAYORDER=
